<mxfile modified="2021-05-01T11:48:16.771Z" host="app.diagrams.net" agent="5.0 (Windows NT 10.0; Win64; x64) AppleWebKit/537.36 (KHTML, like Gecko) Chrome/90.0.4430.85 Safari/537.36 Edg/90.0.818.49" etag="jQW04HcGHpBuKTYVxHdU" version="14.6.9" type="github">
  <diagram id="EwLrUg9lzVBSHdx-3s7B" name="Diagram">
    <mxGraphModel dx="1422" dy="794" grid="1" gridSize="10" guides="1" tooltips="1" connect="1" arrows="1" fold="1" page="1" pageScale="1" pageWidth="850" pageHeight="1100" math="0" shadow="0">
      <root>
        <mxCell id="ebHblskB0KS1XSgmNqtK-0" />
        <mxCell id="ebHblskB0KS1XSgmNqtK-1" parent="ebHblskB0KS1XSgmNqtK-0" />
        <mxCell id="rCZBtAczcft5RAplsEPg-0" value="" style="rounded=0;whiteSpace=wrap;html=1;fillColor=#f5f5f5;strokeColor=none;fontColor=#333333;labelBackgroundColor=none;" vertex="1" parent="ebHblskB0KS1XSgmNqtK-1">
          <mxGeometry x="422" y="229.75" width="168" height="160.25" as="geometry" />
        </mxCell>
        <mxCell id="rCZBtAczcft5RAplsEPg-1" value="" style="rounded=0;whiteSpace=wrap;html=1;fillColor=#f5f5f5;strokeColor=none;fontColor=#333333;labelBackgroundColor=none;" vertex="1" parent="ebHblskB0KS1XSgmNqtK-1">
          <mxGeometry x="200" y="229.75" width="170" height="160.25" as="geometry" />
        </mxCell>
        <mxCell id="rCZBtAczcft5RAplsEPg-2" value="" style="rounded=0;whiteSpace=wrap;html=1;fillColor=#f5f5f5;strokeColor=none;fontColor=#333333;labelBackgroundColor=none;" vertex="1" parent="ebHblskB0KS1XSgmNqtK-1">
          <mxGeometry x="70" y="49.5" width="113" height="110.5" as="geometry" />
        </mxCell>
        <mxCell id="rCZBtAczcft5RAplsEPg-3" value="" style="rounded=0;whiteSpace=wrap;html=1;fillColor=#f5f5f5;strokeColor=none;fontColor=#333333;labelBackgroundColor=none;" vertex="1" parent="ebHblskB0KS1XSgmNqtK-1">
          <mxGeometry x="236.5" y="49.5" width="233.5" height="110.5" as="geometry" />
        </mxCell>
        <mxCell id="rCZBtAczcft5RAplsEPg-4" value="" style="aspect=fixed;html=1;points=[];align=center;image;fontSize=12;image=img/lib/azure2/app_services/App_Services.svg;" vertex="1" parent="ebHblskB0KS1XSgmNqtK-1">
          <mxGeometry x="470" y="263.5" width="64" height="64" as="geometry" />
        </mxCell>
        <mxCell id="rCZBtAczcft5RAplsEPg-5" value="" style="aspect=fixed;html=1;points=[];align=center;image;fontSize=12;image=img/lib/mscae/Azure_DevOps.svg;" vertex="1" parent="ebHblskB0KS1XSgmNqtK-1">
          <mxGeometry x="205" y="229.75" width="30.25" height="30.25" as="geometry" />
        </mxCell>
        <mxCell id="rCZBtAczcft5RAplsEPg-6" style="edgeStyle=orthogonalEdgeStyle;rounded=0;orthogonalLoop=1;jettySize=auto;html=1;exitX=1;exitY=0.5;exitDx=0;exitDy=0;exitPerimeter=0;entryX=-0.312;entryY=0.531;entryDx=0;entryDy=0;entryPerimeter=0;" edge="1" parent="ebHblskB0KS1XSgmNqtK-1" source="rCZBtAczcft5RAplsEPg-8" target="rCZBtAczcft5RAplsEPg-15">
          <mxGeometry relative="1" as="geometry" />
        </mxCell>
        <mxCell id="rCZBtAczcft5RAplsEPg-7" style="edgeStyle=orthogonalEdgeStyle;rounded=0;orthogonalLoop=1;jettySize=auto;html=1;exitX=0.5;exitY=1;exitDx=0;exitDy=0;exitPerimeter=0;" edge="1" parent="ebHblskB0KS1XSgmNqtK-1" source="rCZBtAczcft5RAplsEPg-8" target="rCZBtAczcft5RAplsEPg-10">
          <mxGeometry relative="1" as="geometry" />
        </mxCell>
        <mxCell id="rCZBtAczcft5RAplsEPg-8" value="" style="verticalLabelPosition=bottom;html=1;verticalAlign=top;align=center;strokeColor=none;fillColor=#00BEF2;shape=mxgraph.azure.git_repository;" vertex="1" parent="ebHblskB0KS1XSgmNqtK-1">
          <mxGeometry x="260" y="67" width="50" height="50" as="geometry" />
        </mxCell>
        <mxCell id="rCZBtAczcft5RAplsEPg-9" style="edgeStyle=orthogonalEdgeStyle;rounded=0;orthogonalLoop=1;jettySize=auto;html=1;" edge="1" parent="ebHblskB0KS1XSgmNqtK-1" source="rCZBtAczcft5RAplsEPg-10" target="rCZBtAczcft5RAplsEPg-4">
          <mxGeometry relative="1" as="geometry" />
        </mxCell>
        <mxCell id="rCZBtAczcft5RAplsEPg-10" value="" style="aspect=fixed;html=1;points=[];align=center;image;fontSize=12;image=img/lib/mscae/Azure_Pipelines.svg;" vertex="1" parent="ebHblskB0KS1XSgmNqtK-1">
          <mxGeometry x="263.5" y="274" width="43" height="43" as="geometry" />
        </mxCell>
        <mxCell id="rCZBtAczcft5RAplsEPg-11" style="edgeStyle=orthogonalEdgeStyle;rounded=0;orthogonalLoop=1;jettySize=auto;html=1;exitX=1;exitY=0.5;exitDx=0;exitDy=0;entryX=0;entryY=0.5;entryDx=0;entryDy=0;entryPerimeter=0;exitPerimeter=0;" edge="1" parent="ebHblskB0KS1XSgmNqtK-1" source="rCZBtAczcft5RAplsEPg-12" target="rCZBtAczcft5RAplsEPg-8">
          <mxGeometry relative="1" as="geometry">
            <mxPoint x="170" y="91.5" as="sourcePoint" />
          </mxGeometry>
        </mxCell>
        <mxCell id="rCZBtAczcft5RAplsEPg-12" value="" style="verticalLabelPosition=bottom;html=1;verticalAlign=top;align=center;strokeColor=none;fillColor=#00BEF2;shape=mxgraph.azure.computer;pointerEvents=1;" vertex="1" parent="ebHblskB0KS1XSgmNqtK-1">
          <mxGeometry x="99.5" y="69" width="50" height="45" as="geometry" />
        </mxCell>
        <mxCell id="rCZBtAczcft5RAplsEPg-13" value="Development&lt;br&gt;environment&lt;br&gt;" style="text;html=1;resizable=0;points=[];autosize=1;align=center;verticalAlign=top;spacingTop=-4;labelBackgroundColor=none;" vertex="1" parent="ebHblskB0KS1XSgmNqtK-1">
          <mxGeometry x="81.5" y="112" width="90" height="30" as="geometry" />
        </mxCell>
        <mxCell id="rCZBtAczcft5RAplsEPg-14" value="git push" style="text;html=1;resizable=0;points=[];autosize=1;align=center;verticalAlign=top;spacingTop=-4;labelBackgroundColor=none;" vertex="1" parent="ebHblskB0KS1XSgmNqtK-1">
          <mxGeometry x="176.5" y="67" width="60" height="20" as="geometry" />
        </mxCell>
        <mxCell id="rCZBtAczcft5RAplsEPg-15" value="" style="html=1;aspect=fixed;strokeColor=none;shadow=0;align=center;verticalAlign=top;fillColor=#3B8DF1;shape=mxgraph.gcp2.play_start" vertex="1" parent="ebHblskB0KS1XSgmNqtK-1">
          <mxGeometry x="390" y="75" width="32" height="32" as="geometry" />
        </mxCell>
        <mxCell id="rCZBtAczcft5RAplsEPg-16" value="CI" style="text;html=1;resizable=0;points=[];autosize=1;align=center;verticalAlign=top;spacingTop=-4;labelBackgroundColor=none;" vertex="1" parent="ebHblskB0KS1XSgmNqtK-1">
          <mxGeometry x="325" y="67" width="30" height="20" as="geometry" />
        </mxCell>
        <mxCell id="rCZBtAczcft5RAplsEPg-17" value="GitHub repo&lt;br&gt;" style="text;html=1;resizable=0;points=[];autosize=1;align=center;verticalAlign=top;spacingTop=-4;labelBackgroundColor=none;" vertex="1" parent="ebHblskB0KS1XSgmNqtK-1">
          <mxGeometry x="245" y="49.5" width="80" height="20" as="geometry" />
        </mxCell>
        <mxCell id="rCZBtAczcft5RAplsEPg-18" value="GitHub action:&lt;br&gt;run pylint/pytest" style="text;html=1;resizable=0;points=[];autosize=1;align=center;verticalAlign=top;spacingTop=-4;labelBackgroundColor=none;" vertex="1" parent="ebHblskB0KS1XSgmNqtK-1">
          <mxGeometry x="352" y="107" width="100" height="30" as="geometry" />
        </mxCell>
        <mxCell id="rCZBtAczcft5RAplsEPg-19" value="Azure Pipeline&lt;br&gt;run build and deployment" style="text;html=1;resizable=0;points=[];autosize=1;align=center;verticalAlign=top;spacingTop=-4;labelBackgroundColor=none;" vertex="1" parent="ebHblskB0KS1XSgmNqtK-1">
          <mxGeometry x="205" y="317" width="150" height="30" as="geometry" />
        </mxCell>
        <mxCell id="rCZBtAczcft5RAplsEPg-20" value="CI/CD" style="text;html=1;resizable=0;points=[];autosize=1;align=center;verticalAlign=top;spacingTop=-4;labelBackgroundColor=none;" vertex="1" parent="ebHblskB0KS1XSgmNqtK-1">
          <mxGeometry x="230.5" y="193" width="50" height="20" as="geometry" />
        </mxCell>
        <mxCell id="rCZBtAczcft5RAplsEPg-21" value="Azure App Service&lt;br&gt;" style="text;html=1;resizable=0;points=[];autosize=1;align=center;verticalAlign=top;spacingTop=-4;labelBackgroundColor=none;" vertex="1" parent="ebHblskB0KS1XSgmNqtK-1">
          <mxGeometry x="447" y="330" width="110" height="20" as="geometry" />
        </mxCell>
        <mxCell id="rCZBtAczcft5RAplsEPg-22" value="" style="dashed=0;outlineConnect=0;html=1;align=center;labelPosition=center;verticalLabelPosition=bottom;verticalAlign=top;shape=mxgraph.webicons.github;gradientColor=#DFDEDE" vertex="1" parent="ebHblskB0KS1XSgmNqtK-1">
          <mxGeometry x="438" y="49.5" width="32" height="32" as="geometry" />
        </mxCell>
        <mxCell id="rCZBtAczcft5RAplsEPg-23" value="" style="verticalLabelPosition=bottom;html=1;verticalAlign=top;align=center;strokeColor=none;fillColor=#00BEF2;shape=mxgraph.azure.cloud;" vertex="1" parent="ebHblskB0KS1XSgmNqtK-1">
          <mxGeometry x="560" y="231" width="30" height="19.5" as="geometry" />
        </mxCell>
        <mxCell id="rCZBtAczcft5RAplsEPg-24" value="deploy" style="text;html=1;resizable=0;points=[];autosize=1;align=center;verticalAlign=top;spacingTop=-4;labelBackgroundColor=none;" vertex="1" parent="ebHblskB0KS1XSgmNqtK-1">
          <mxGeometry x="370" y="274" width="50" height="20" as="geometry" />
        </mxCell>
      </root>
    </mxGraphModel>
  </diagram>
</mxfile>
